<svg width="20" height="20" viewBox="0 0 20 20" fill="none" xmlns="http://www.w3.org/2000/svg">
<rect width="20" height="20" fill="white"/>
<path d="M14.3256 15.1274C14.3256 15.64 14.3256 15.8962 14.1632 16.0232C14.0008 16.1501 13.7619 16.0809 13.2837 15.9422L5.59884 13.7171C5.31066 13.6337 5.16676 13.5923 5.08318 13.4788C4.99961 13.3653 5 13.2111 5 12.9024V7.68746C5 7.37872 5 7.22455 5.08318 7.11106C5.16676 6.99757 5.31066 6.95607 5.59884 6.87268L13.2837 4.64761C13.7619 4.5093 14.0012 4.43974 14.1632 4.56666C14.3256 4.69398 14.3256 4.95025 14.3256 5.46238V15.1274ZM6.91638 12.9918L13.2793 14.8346V11.1491L6.91638 12.9918ZM6.04591 12.1372L12.4081 10.2949L6.04551 8.45261L6.04591 12.1372ZM6.91638 7.59797L13.2793 9.44067V5.75526L6.91638 7.59797Z" fill="#567BFF"/>
</svg>
